<?xml version="1.0" encoding="UTF-8" standalone="no"?>
<svg width="33px" height="64px" viewBox="0 0 33 64" version="1.1" xmlns="http://www.w3.org/2000/svg" xmlns:xlink="http://www.w3.org/1999/xlink" xmlns:sketch="http://www.bohemiancoding.com/sketch/ns">
    <!-- Generator: Sketch 3.4.1 (15681) - http://www.bohemiancoding.com/sketch -->
    <title>facebook</title>
    <desc>Created with Sketch.</desc>
    <defs></defs>
    <g id="Page-1" stroke="none" stroke-width="1" fill="none" fill-rule="evenodd" sketch:type="MSPage">
        <g id="facebook" sketch:type="MSArtboardGroup">
            <path d="M31.9973323,25.9999994 C31.9973323,27.6524437 31.4106657,29.065777 30.2373324,30.2399991 C29.0639992,31.4142213 27.6506659,32.0008879 25.9973327,31.999999 L21.997333,31.999999 L21.997333,19.3333331 L26.226666,19.3333331 L26.8519993,14.6666668 L21.997333,14.6666668 L21.997333,11.6880003 C21.997333,10.9377781 22.1919996,10.3613337 22.5813329,9.95866705 C22.9706662,9.55600041 23.6373329,9.35466709 24.5813328,9.35466709 L27.3319993,9.33333375 L27.3319993,5.02133403 C25.998666,4.8960007 24.7488883,4.83333404 23.5826662,4.83333404 C21.6937774,4.83333404 20.1799997,5.39244511 19.0413331,6.51066726 C17.9026665,7.62888942 17.3333332,9.1946671 17.3333332,11.2080003 L17.3333332,14.6666668 L12.6666669,14.6666668 L12.6666669,19.3333331 L17.3333332,19.3333331 L17.3333332,31.999999 L6.00000063,31.999999 C4.34755629,31.999999 2.93422305,31.4133324 1.7600009,30.2399991 C0.585778749,29.0666658 -0.00088788026,27.6533326 1.00857281e-06,25.9999994 L1.00857281e-06,6.00000063 C1.00857281e-06,4.34755629 0.586667638,2.93422305 1.7600009,1.7600009 C2.93333416,0.585778749 4.3466674,-0.00088788026 6.00000063,1.00857281e-06 L25.9999994,1.00857281e-06 C27.6524437,1.00857281e-06 29.065777,0.586667638 30.2399991,1.7600009 C31.4142213,2.93333416 32.0008879,4.3466674 31.999999,6.00000063 L31.999999,25.9999994 L31.9973323,25.9999994 L31.9973323,25.9999994 Z" id="Shape" fill="#2E2E2E" sketch:type="MSShapeGroup"></path>
            <path d="M31.9973323,57.9999994 C31.9973323,59.6524437 31.4106657,61.065777 30.2373324,62.2399991 C29.0639992,63.4142213 27.6506659,64.0008879 25.9973327,63.999999 L21.997333,63.999999 L21.997333,51.3333331 L26.226666,51.3333331 L26.8519993,46.6666668 L21.997333,46.6666668 L21.997333,43.6880003 C21.997333,42.9377781 22.1919996,42.3613337 22.5813329,41.958667 C22.9706662,41.5560004 23.6373329,41.3546671 24.5813328,41.3546671 L27.3319993,41.3333338 L27.3319993,37.021334 C25.998666,36.8960007 24.7488883,36.833334 23.5826662,36.833334 C21.6937774,36.833334 20.1799997,37.3924451 19.0413331,38.5106673 C17.9026665,39.6288894 17.3333332,41.1946671 17.3333332,43.2080003 L17.3333332,46.6666668 L12.6666669,46.6666668 L12.6666669,51.3333331 L17.3333332,51.3333331 L17.3333332,63.999999 L6.00000063,63.999999 C4.34755629,63.999999 2.93422305,63.4133324 1.7600009,62.2399991 C0.585778749,61.0666658 -0.00088788026,59.6533326 1.00857281e-06,57.9999994 L1.00857281e-06,38.0000006 C1.00857281e-06,36.3475563 0.586667638,34.934223 1.7600009,33.7600009 C2.93333416,32.5857787 4.3466674,31.9991121 6.00000063,32.000001 L25.9999994,32.000001 C27.6524437,32.000001 29.065777,32.5866676 30.2399991,33.7600009 C31.4142213,34.9333342 32.0008879,36.3466674 31.999999,38.0000006 L31.999999,57.9999994 L31.9973323,57.9999994 L31.9973323,57.9999994 Z" id="Shape" fill="#3C5A98" sketch:type="MSShapeGroup"></path>
        </g>
    </g>
</svg>