<?xml version="1.0" encoding="UTF-8" standalone="no"?>
<svg width="24px" height="32px" viewBox="0 0 24 32" version="1.1" xmlns="http://www.w3.org/2000/svg" xmlns:xlink="http://www.w3.org/1999/xlink" xmlns:sketch="http://www.bohemiancoding.com/sketch/ns">
    <!-- Generator: Sketch 3.4.2 (15857) - http://www.bohemiancoding.com/sketch -->
    <title>Artboard 2</title>
    <desc>Created with Sketch.</desc>
    <defs></defs>
    <g id="Page-1" stroke="none" stroke-width="1" fill="none" fill-rule="evenodd" sketch:type="MSPage">
        <g id="Artboard-2" sketch:type="MSArtboardGroup" fill="#0A0B09">
            <g id="fa-folder-o" sketch:type="MSLayerGroup">
                <path d="M0.75711748,15.245403 C1.24878775,15.7557321 1.86269144,16 2.55869221,16 L16.4413078,16 C17.1373086,16 17.7512123,15.7557321 18.2428825,15.245403 C18.754621,14.7568672 19,14.1448354 19,13.4519864 L19,5.46288309 C19,4.76912599 18.754621,4.15800227 18.2428825,3.66855846 C17.7512123,3.15913734 17.1373086,2.91486947 16.4413078,2.91486947 L8.7624946,2.91486947 L8.7624946,2.54801362 C8.7624946,1.85516459 8.51711556,1.2431328 8.00537712,0.754597049 C7.51370685,0.244267877 6.89980316,0 6.20380239,0 L2.55869221,0 C1.86269144,0 1.24878775,0.244267877 0.75711748,0.754597049 C0.245379039,1.2431328 0,1.85516459 0,2.54801362 L0,13.4519864 C0,14.1448354 0.245379039,14.7568672 0.75711748,15.245403 L0.75711748,15.245403 Z M1.45311825,2.54801362 C1.45311825,2.24199773 1.55619569,1.97684449 1.78150655,1.77343927 C1.98583705,1.54914869 2.25219646,1.44744608 2.55869221,1.44744608 L6.20380239,1.44744608 C6.51029814,1.44744608 6.77665754,1.54914869 6.98190024,1.77343927 C7.2072111,1.97684449 7.30937635,2.24199773 7.30937635,2.54801362 L7.30937635,3.28172531 C7.30937635,3.5877412 7.4115416,3.83200908 7.63685247,4.0354143 C7.84118297,4.25970488 8.08747419,4.36140749 8.39396995,4.36140749 L16.4413078,4.36140749 C16.7478035,4.36140749 17.0141629,4.46401816 17.2194056,4.68830874 C17.4438043,4.89171396 17.5468818,5.1568672 17.5468818,5.46288309 L17.5468818,13.4519864 C17.5468818,13.7580023 17.4438043,14.0231555 17.2194056,14.2265607 C17.0141629,14.4508513 16.7478035,14.5525539 16.4413078,14.5525539 L2.55869221,14.5525539 C2.25219646,14.5525539 1.98583705,14.4508513 1.78150655,14.2265607 C1.55619569,14.0231555 1.45311825,13.7580023 1.45311825,13.4519864 L1.45311825,2.54801362 L1.45311825,2.54801362 Z" id="Fill-252" sketch:type="MSShapeGroup"></path>
            </g>
            <g id="fa-folder-open-o" sketch:type="MSLayerGroup" transform="translate(0.000000, 16.000000)">
                <path d="M0.819625026,15.246311 C1.35188754,15.7557321 2.01647506,16 2.76993759,16 L16.2246255,16 C16.778613,16 17.3553131,15.8783201 17.9537381,15.6131669 C18.5521631,15.3480136 19.0390006,15.0220204 19.3945006,14.6143019 L23.0294882,10.476277 C23.4057258,10.0485812 23.6052008,9.6 23.6052008,9.13144154 C23.6052008,8.84631101 23.5390383,8.60113507 23.4284383,8.3568672 C23.2289632,8.00998865 22.9623382,7.74574347 22.5861007,7.56231555 C22.2315882,7.37888763 21.8099257,7.27627696 21.3665382,7.27627696 L18.9955506,7.27627696 L18.9955506,5.46288309 C18.9955506,4.77003405 18.7289256,4.15800227 18.1749381,3.66946652 C17.6436631,3.1600454 16.978088,2.91486947 16.2246255,2.91486947 L9.48592531,2.91486947 L9.48592531,2.54801362 C9.48592531,1.85516459 9.2202878,1.24404086 8.66630028,0.754597049 C8.13403776,0.245175936 7.46945024,0 6.71598772,0 L2.76993759,0 C2.01647506,0 1.35188754,0.245175936 0.819625026,0.754597049 C0.265637509,1.24404086 0,1.85516459 0,2.54801362 L0,13.4528944 C0,14.1457435 0.265637509,14.7568672 0.819625026,15.246311 L0.819625026,15.246311 Z M1.57308755,2.54801362 C1.57308755,2.24199773 1.68467505,1.97775255 1.92760006,1.77343927 C2.14978757,1.54914869 2.43813758,1.44744608 2.76993759,1.44744608 L6.71598772,1.44744608 C7.04778773,1.44744608 7.33613774,1.54914869 7.55832524,1.77343927 C7.80223775,1.97775255 7.91283775,2.24199773 7.91283775,2.54801362 L7.91283775,3.28172531 C7.91283775,3.5877412 8.02343776,3.83200908 8.26735027,4.03632236 C8.48855027,4.25970488 8.75517528,4.36231555 9.08697529,4.36231555 L16.2246255,4.36231555 C16.557413,4.36231555 16.8447755,4.46401816 17.066963,4.68830874 C17.3108756,4.89171396 17.4214756,5.1568672 17.4214756,5.46288309 L17.4214756,7.27627696 L7.91283775,7.27627696 C7.35885024,7.27627696 6.78215022,7.39886493 6.1837252,7.66401816 C5.58530018,7.9291714 5.09747516,8.25516459 4.74296265,8.66288309 L1.57308755,12.2497162 L1.57308755,2.54801362 L1.57308755,2.54801362 Z M2.32753757,13.6971623 L5.96252519,9.55913734 C6.1837252,9.33575482 6.47207521,9.13144154 6.84831272,8.96799092 C7.22553773,8.80544835 7.58005024,8.72372304 7.91283775,8.72372304 L21.3665382,8.72372304 C21.8099257,8.72372304 22.0321132,8.86628831 22.0321132,9.13144154 C22.0321132,9.25402951 21.9649632,9.39659478 21.8099257,9.55913734 L18.1749381,13.6971623 C17.9537381,13.9414302 17.6653881,14.1457435 17.2881631,14.308286 C16.9119255,14.4717367 16.557413,14.553462 16.2246255,14.553462 L2.76993759,14.553462 C2.32753757,14.553462 2.10535007,14.4108967 2.10535007,14.1457435 C2.10535007,14.0231555 2.17151257,13.8805902 2.32753757,13.6971623 L2.32753757,13.6971623 Z" id="Fill-1" sketch:type="MSShapeGroup"></path>
            </g>
        </g>
    </g>
</svg>