<?xml version="1.0" encoding="UTF-8" standalone="no"?>
<svg width="33px" height="64px" viewBox="0 0 33 64" version="1.1" xmlns="http://www.w3.org/2000/svg" xmlns:xlink="http://www.w3.org/1999/xlink" xmlns:sketch="http://www.bohemiancoding.com/sketch/ns">
    <!-- Generator: Sketch 3.4.1 (15681) - http://www.bohemiancoding.com/sketch -->
    <title>linkedin</title>
    <desc>Created with Sketch.</desc>
    <defs></defs>
    <g id="Page-1" stroke="none" stroke-width="1" fill="none" fill-rule="evenodd" sketch:type="MSPage">
        <g id="linkedin" sketch:type="MSArtboardGroup">
            <path d="M4.937334,26.7919993 L9.749334,26.7919993 L9.749334,12.3333336 L4.937334,12.3333336 L4.937334,26.7919993 L4.937334,26.7919993 L4.937334,26.7919993 Z M10.062667,7.87466718 C10.048445,7.15288945 9.798667,6.55555615 9.313334,6.08266729 C8.828,5.60977843 8.182223,5.37377845 7.376001,5.37466734 C6.569778,5.37555623 5.913334,5.61155621 5.406667,6.08266729 C4.900001,6.55377837 4.646667,7.15111167 4.646667,7.87466718 C4.646667,8.58311158 4.893334,9.17688932 5.386667,9.6560004 C5.880001,10.1351115 6.522223,10.374667 7.313334,10.374667 L7.334667,10.374667 C8.154223,10.374667 8.813778,10.1351115 9.313334,9.6560004 C9.812889,9.17688932 10.062667,8.58311158 10.062667,7.87466718 L10.062667,7.87466718 L10.062667,7.87466718 Z M22.250666,26.7919993 L27.062666,26.7919993 L27.062666,18.4999998 C27.062666,16.3613333 26.555555,14.7431112 25.541333,13.6453335 C24.527111,12.5475558 23.186666,11.9991114 21.52,12.0000003 C19.631111,12.0000003 18.179555,12.8124446 17.165333,14.4373334 L17.206667,14.4373334 L17.206667,12.3333336 L12.394667,12.3333336 C12.436445,13.249778 12.436445,18.0693332 12.394667,26.7919993 L17.206667,26.7919993 L17.206667,18.7093332 C17.206667,18.1813332 17.255111,17.7924443 17.352,17.5426666 C17.56,17.0564444 17.872444,16.6431111 18.289333,16.3026666 C18.706222,15.9622222 19.22,15.792 19.830666,15.792 C21.442222,15.792 22.248,16.8822222 22.248,19.0626665 L22.248,26.7919993 L22.250666,26.7919993 L22.250666,26.7919993 Z M31.999999,6.00000063 L31.999999,25.9999994 C31.999999,27.6524437 31.413332,29.065777 30.239999,30.2399991 C29.066666,31.4142213 27.653333,32.0008879 25.999999,31.999999 L6.000001,31.999999 C4.347556,31.999999 2.934223,31.4133324 1.760001,30.2399991 C0.585779,29.0666658 -0.000888,27.6533326 1.00000001e-06,25.9999994 L1.00000001e-06,6.00000063 C1.00000001e-06,4.34755629 0.586668,2.93422305 1.760001,1.7600009 C2.933334,0.585778749 4.346667,-0.00088788026 6.000001,1.00857281e-06 L25.999999,1.00857281e-06 C27.652444,1.00857281e-06 29.065777,0.586667638 30.239999,1.7600009 C31.414221,2.93333416 32.000888,4.3466674 31.999999,6.00000063 L31.999999,6.00000063 L31.999999,6.00000063 Z" id="Shape" fill="#2E2E2E" sketch:type="MSShapeGroup"></path>
            <path d="M4.937334,58.7919993 L9.749334,58.7919993 L9.749334,44.3333336 L4.937334,44.3333336 L4.937334,58.7919993 L4.937334,58.7919993 L4.937334,58.7919993 Z M10.062667,39.8746672 C10.048445,39.1528894 9.798667,38.5555562 9.313334,38.0826673 C8.828,37.6097784 8.182223,37.3737784 7.376001,37.3746673 C6.569778,37.3755562 5.913334,37.6115562 5.406667,38.0826673 C4.900001,38.5537784 4.646667,39.1511117 4.646667,39.8746672 C4.646667,40.5831116 4.893334,41.1768893 5.386667,41.6560004 C5.880001,42.1351115 6.522223,42.374667 7.313334,42.374667 L7.334667,42.374667 C8.154223,42.374667 8.813778,42.1351115 9.313334,41.6560004 C9.812889,41.1768893 10.062667,40.5831116 10.062667,39.8746672 L10.062667,39.8746672 L10.062667,39.8746672 Z M22.250666,58.7919993 L27.062666,58.7919993 L27.062666,50.4999998 C27.062666,48.3613333 26.555555,46.7431112 25.541333,45.6453335 C24.527111,44.5475558 23.186666,43.9991114 21.52,44.0000003 C19.631111,44.0000003 18.179555,44.8124446 17.165333,46.4373334 L17.206667,46.4373334 L17.206667,44.3333336 L12.394667,44.3333336 C12.436445,45.249778 12.436445,50.0693332 12.394667,58.7919993 L17.206667,58.7919993 L17.206667,50.7093332 C17.206667,50.1813332 17.255111,49.7924443 17.352,49.5426666 C17.56,49.0564444 17.872444,48.6431111 18.289333,48.3026666 C18.706222,47.9622222 19.22,47.792 19.830666,47.792 C21.442222,47.792 22.248,48.8822222 22.248,51.0626665 L22.248,58.7919993 L22.250666,58.7919993 L22.250666,58.7919993 Z M31.999999,38.0000006 L31.999999,57.9999994 C31.999999,59.6524437 31.413332,61.065777 30.239999,62.2399991 C29.066666,63.4142213 27.653333,64.0008879 25.999999,63.999999 L6.000001,63.999999 C4.347556,63.999999 2.934223,63.4133324 1.760001,62.2399991 C0.585779,61.0666658 -0.000888,59.6533326 1.00000001e-06,57.9999994 L1.00000001e-06,38.0000006 C1.00000001e-06,36.3475563 0.586668,34.934223 1.760001,33.7600009 C2.933334,32.5857787 4.346667,31.9991121 6.000001,32.000001 L25.999999,32.000001 C27.652444,32.000001 29.065777,32.5866676 30.239999,33.7600009 C31.414221,34.9333342 32.000888,36.3466674 31.999999,38.0000006 L31.999999,38.0000006 L31.999999,38.0000006 Z" id="Shape" fill="#007BB6" sketch:type="MSShapeGroup"></path>
        </g>
    </g>
</svg>