<?xml version="1.0" encoding="UTF-8" standalone="no"?>
<svg width="192px" height="64px" viewBox="0 0 192 64" version="1.1" xmlns="http://www.w3.org/2000/svg" xmlns:xlink="http://www.w3.org/1999/xlink" xmlns:sketch="http://www.bohemiancoding.com/sketch/ns">
    <!-- Generator: Sketch 3.2.2 (9983) - http://www.bohemiancoding.com/sketch -->
    <title>Artboard 1</title>
    <desc>Created with Sketch.</desc>
    <defs></defs>
    <g id="Page-1" stroke="none" stroke-width="0" fill="none" fill-rule="evenodd" sketch:type="MSPage">
        <g id="Artboard-1" sketch:type="MSArtboardGroup">
            <path d="M31.9973323,25.9999994 C31.9973323,27.6524437 31.4106657,29.065777 30.2373324,30.2399991 C29.0639992,31.4142213 27.6506659,32.0008879 25.9973327,31.999999 L21.997333,31.999999 L21.997333,19.3333331 L26.226666,19.3333331 L26.8519993,14.6666668 L21.997333,14.6666668 L21.997333,11.6880003 C21.997333,10.9377781 22.1919996,10.3613337 22.5813329,9.95866705 C22.9706662,9.55600041 23.6373329,9.35466709 24.5813328,9.35466709 L27.3319993,9.33333375 L27.3319993,5.02133403 C25.998666,4.8960007 24.7488883,4.83333404 23.5826662,4.83333404 C21.6937774,4.83333404 20.1799997,5.39244511 19.0413331,6.51066726 C17.9026665,7.62888942 17.3333332,9.1946671 17.3333332,11.2080003 L17.3333332,14.6666668 L12.6666669,14.6666668 L12.6666669,19.3333331 L17.3333332,19.3333331 L17.3333332,31.999999 L6.00000063,31.999999 C4.34755629,31.999999 2.93422305,31.4133324 1.7600009,30.2399991 C0.585778749,29.0666658 -0.00088788026,27.6533326 1.00857281e-06,25.9999994 L1.00857281e-06,6.00000063 C1.00857281e-06,4.34755629 0.586667638,2.93422305 1.7600009,1.7600009 C2.93333416,0.585778749 4.3466674,-0.00088788026 6.00000063,1.00857281e-06 L25.9999994,1.00857281e-06 C27.6524437,1.00857281e-06 29.065777,0.586667638 30.2399991,1.7600009 C31.4142213,2.93333416 32.0008879,4.3466674 31.999999,6.00000063 L31.999999,25.9999994 L31.9973323,25.9999994 Z" id="Shape" fill="#2E2E2E" sketch:type="MSShapeGroup"></path>
            <path d="M31.9973323,57.9999994 C31.9973323,59.6524437 31.4106657,61.065777 30.2373324,62.2399991 C29.0639992,63.4142213 27.6506659,64.0008879 25.9973327,63.999999 L21.997333,63.999999 L21.997333,51.3333331 L26.226666,51.3333331 L26.8519993,46.6666668 L21.997333,46.6666668 L21.997333,43.6880003 C21.997333,42.9377781 22.1919996,42.3613337 22.5813329,41.958667 C22.9706662,41.5560004 23.6373329,41.3546671 24.5813328,41.3546671 L27.3319993,41.3333338 L27.3319993,37.021334 C25.998666,36.8960007 24.7488883,36.833334 23.5826662,36.833334 C21.6937774,36.833334 20.1799997,37.3924451 19.0413331,38.5106673 C17.9026665,39.6288894 17.3333332,41.1946671 17.3333332,43.2080003 L17.3333332,46.6666668 L12.6666669,46.6666668 L12.6666669,51.3333331 L17.3333332,51.3333331 L17.3333332,63.999999 L6.00000063,63.999999 C4.34755629,63.999999 2.93422305,63.4133324 1.7600009,62.2399991 C0.585778749,61.0666658 -0.00088788026,59.6533326 1.00857281e-06,57.9999994 L1.00857281e-06,38.0000006 C1.00857281e-06,36.3475563 0.586667638,34.934223 1.7600009,33.7600009 C2.93333416,32.5857787 4.3466674,31.9991121 6.00000063,32.000001 L25.9999994,32.000001 C27.6524437,32.000001 29.065777,32.5866676 30.2399991,33.7600009 C31.4142213,34.9333342 32.0008879,36.3466674 31.999999,38.0000006 L31.999999,57.9999994 L31.9973323,57.9999994 Z" id="Shape" fill="#3C5A98" sketch:type="MSShapeGroup"></path>
            <path d="M132.937334,26.7919993 L137.749334,26.7919993 L137.749334,12.3333336 L132.937334,12.3333336 L132.937334,26.7919993 L132.937334,26.7919993 Z M138.062667,7.87466718 C138.048445,7.15288945 137.798667,6.55555615 137.313334,6.08266729 C136.828,5.60977843 136.182223,5.37377845 135.376001,5.37466734 C134.569778,5.37555623 133.913334,5.61155621 133.406667,6.08266729 C132.900001,6.55377837 132.646667,7.15111167 132.646667,7.87466718 C132.646667,8.58311158 132.893334,9.17688932 133.386667,9.6560004 C133.880001,10.1351115 134.522223,10.374667 135.313334,10.374667 L135.334667,10.374667 C136.154223,10.374667 136.813778,10.1351115 137.313334,9.6560004 C137.812889,9.17688932 138.062667,8.58311158 138.062667,7.87466718 L138.062667,7.87466718 Z M150.250666,26.7919993 L155.062666,26.7919993 L155.062666,18.4999998 C155.062666,16.3613333 154.555555,14.7431112 153.541333,13.6453335 C152.527111,12.5475558 151.186666,11.9991114 149.52,12.0000003 C147.631111,12.0000003 146.179555,12.8124446 145.165333,14.4373334 L145.206667,14.4373334 L145.206667,12.3333336 L140.394667,12.3333336 C140.436445,13.249778 140.436445,18.0693332 140.394667,26.7919993 L145.206667,26.7919993 L145.206667,18.7093332 C145.206667,18.1813332 145.255111,17.7924443 145.352,17.5426666 C145.56,17.0564444 145.872444,16.6431111 146.289333,16.3026666 C146.706222,15.9622222 147.22,15.792 147.830666,15.792 C149.442222,15.792 150.248,16.8822222 150.248,19.0626665 L150.248,26.7919993 L150.250666,26.7919993 Z M159.999999,6.00000063 L159.999999,25.9999994 C159.999999,27.6524437 159.413332,29.065777 158.239999,30.2399991 C157.066666,31.4142213 155.653333,32.0008879 153.999999,31.999999 L134.000001,31.999999 C132.347556,31.999999 130.934223,31.4133324 129.760001,30.2399991 C128.585779,29.0666658 127.999112,27.6533326 128.000001,25.9999994 L128.000001,6.00000063 C128.000001,4.34755629 128.586668,2.93422305 129.760001,1.7600009 C130.933334,0.585778749 132.346667,-0.00088788026 134.000001,1.00857281e-06 L153.999999,1.00857281e-06 C155.652444,1.00857281e-06 157.065777,0.586667638 158.239999,1.7600009 C159.414221,2.93333416 160.000888,4.3466674 159.999999,6.00000063 L159.999999,6.00000063 Z" id="Shape" fill="#2E2E2E" sketch:type="MSShapeGroup"></path>
            <path d="M132.937334,58.7919993 L137.749334,58.7919993 L137.749334,44.3333336 L132.937334,44.3333336 L132.937334,58.7919993 L132.937334,58.7919993 Z M138.062667,39.8746672 C138.048445,39.1528894 137.798667,38.5555562 137.313334,38.0826673 C136.828,37.6097784 136.182223,37.3737784 135.376001,37.3746673 C134.569778,37.3755562 133.913334,37.6115562 133.406667,38.0826673 C132.900001,38.5537784 132.646667,39.1511117 132.646667,39.8746672 C132.646667,40.5831116 132.893334,41.1768893 133.386667,41.6560004 C133.880001,42.1351115 134.522223,42.374667 135.313334,42.374667 L135.334667,42.374667 C136.154223,42.374667 136.813778,42.1351115 137.313334,41.6560004 C137.812889,41.1768893 138.062667,40.5831116 138.062667,39.8746672 L138.062667,39.8746672 Z M150.250666,58.7919993 L155.062666,58.7919993 L155.062666,50.4999998 C155.062666,48.3613333 154.555555,46.7431112 153.541333,45.6453335 C152.527111,44.5475558 151.186666,43.9991114 149.52,44.0000003 C147.631111,44.0000003 146.179555,44.8124446 145.165333,46.4373334 L145.206667,46.4373334 L145.206667,44.3333336 L140.394667,44.3333336 C140.436445,45.249778 140.436445,50.0693332 140.394667,58.7919993 L145.206667,58.7919993 L145.206667,50.7093332 C145.206667,50.1813332 145.255111,49.7924443 145.352,49.5426666 C145.56,49.0564444 145.872444,48.6431111 146.289333,48.3026666 C146.706222,47.9622222 147.22,47.792 147.830666,47.792 C149.442222,47.792 150.248,48.8822222 150.248,51.0626665 L150.248,58.7919993 L150.250666,58.7919993 Z M159.999999,38.0000006 L159.999999,57.9999994 C159.999999,59.6524437 159.413332,61.065777 158.239999,62.2399991 C157.066666,63.4142213 155.653333,64.0008879 153.999999,63.999999 L134.000001,63.999999 C132.347556,63.999999 130.934223,63.4133324 129.760001,62.2399991 C128.585779,61.0666658 127.999112,59.6533326 128.000001,57.9999994 L128.000001,38.0000006 C128.000001,36.3475563 128.586668,34.934223 129.760001,33.7600009 C130.933334,32.5857787 132.346667,31.9991121 134.000001,32.000001 L153.999999,32.000001 C155.652444,32.000001 157.065777,32.5866676 158.239999,33.7600009 C159.414221,34.9333342 160.000888,36.3466674 159.999999,38.0000006 L159.999999,38.0000006 Z" id="Shape" fill="#007BB6" sketch:type="MSShapeGroup"></path>
            <path d="M96,3.19577004 C94.8230368,3.73774274 93.5570763,4.10424918 92.2291178,4.26933282 C93.5840755,3.42522592 94.625043,2.09002115 95.1160276,0.498365699 C93.8470673,1.27913863 92.4421112,1.84706787 90.9471579,2.15231686 C89.7491953,0.827494713 88.0432486,0 86.1553076,0 C82.529421,0 79.5905128,3.05145164 79.5905128,6.81618919 C79.5905128,7.35089406 79.648511,7.87106326 79.7605075,8.36942896 C74.304678,8.0849452 69.4668292,5.37092867 66.2289303,1.24695251 C65.663948,2.25406653 65.3399581,3.42418766 65.3399581,4.67425495 C65.3399581,7.0394155 66.4989219,9.1252836 68.2608668,10.3483561 C67.1849005,10.3130552 66.1729321,10.0067679 65.2869598,9.49594309 C65.2859598,9.52397616 65.2859598,9.55304749 65.2859598,9.58211882 C65.2859598,12.8848298 67.5488891,15.6393386 70.5517953,16.2654105 C70.0008125,16.4211498 69.4208306,16.5042107 68.8218493,16.5042107 C68.3988625,16.5042107 67.9878754,16.461642 67.5868879,16.3816958 C68.4218618,19.0894828 70.846786,21.0601038 73.7196963,21.1151317 C71.4727665,22.9435109 68.6418549,24.0326476 65.5659511,24.0326476 C65.0359676,24.0326476 64.5139839,24.0004614 64,23.9371275 C66.9049092,25.8714093 70.3558014,27 74.0636855,27 C86.1393081,27 92.7421018,16.6132282 92.7421018,7.60526822 C92.7421018,7.30936358 92.736102,7.01553547 92.7231024,6.72378389 C94.0060623,5.76235339 95.1190275,4.56212267 95.999,3.19577004 L96,3.19577004 Z" id="Shape" fill="#2E2E2E" sketch:type="MSShapeGroup"></path>
            <path d="M96,35.19577 C94.8230368,35.7377427 93.5570763,36.1042492 92.2291178,36.2693328 C93.5840755,35.4252259 94.625043,34.0900211 95.1160276,32.4983657 C93.8470673,33.2791386 92.4421112,33.8470679 90.9471579,34.1523169 C89.7491953,32.8274947 88.0432486,32 86.1553076,32 C82.529421,32 79.5905128,35.0514516 79.5905128,38.8161892 C79.5905128,39.3508941 79.648511,39.8710633 79.7605075,40.369429 C74.304678,40.0849452 69.4668292,37.3709287 66.2289303,33.2469525 C65.663948,34.2540665 65.3399581,35.4241877 65.3399581,36.674255 C65.3399581,39.0394155 66.4989219,41.1252836 68.2608668,42.3483561 C67.1849005,42.3130552 66.1729321,42.0067679 65.2869598,41.4959431 C65.2859598,41.5239762 65.2859598,41.5530475 65.2859598,41.5821188 C65.2859598,44.8848298 67.5488891,47.6393386 70.5517953,48.2654105 C70.0008125,48.4211498 69.4208306,48.5042107 68.8218493,48.5042107 C68.3988625,48.5042107 67.9878754,48.461642 67.5868879,48.3816958 C68.4218618,51.0894828 70.846786,53.0601038 73.7196963,53.1151317 C71.4727665,54.9435109 68.6418549,56.0326476 65.5659511,56.0326476 C65.0359676,56.0326476 64.5139839,56.0004614 64,55.9371275 C66.9049092,57.8714093 70.3558014,59 74.0636855,59 C86.1393081,59 92.7421018,48.6132282 92.7421018,39.6052682 C92.7421018,39.3093636 92.736102,39.0155355 92.7231024,38.7237839 C94.0060623,37.7623534 95.1190275,36.5621227 95.999,35.19577 L96,35.19577 Z" id="Shape" fill="#00ABF0" sketch:type="MSShapeGroup"></path>
        </g>
    </g>
</svg>