<?xml version="1.0" encoding="UTF-8" standalone="no"?>
<svg width="32px" height="64px" viewBox="0 0 32 64" version="1.1" xmlns="http://www.w3.org/2000/svg" xmlns:xlink="http://www.w3.org/1999/xlink" xmlns:sketch="http://www.bohemiancoding.com/sketch/ns">
    <!-- Generator: Sketch 3.4.1 (15681) - http://www.bohemiancoding.com/sketch -->
    <title>twitter</title>
    <desc>Created with Sketch.</desc>
    <defs></defs>
    <g id="Page-1" stroke="none" stroke-width="1" fill="none" fill-rule="evenodd" sketch:type="MSPage">
        <g id="twitter" sketch:type="MSArtboardGroup">
            <path d="M32,6.19577004 C30.8230368,6.73774274 29.5570763,7.10424918 28.2291178,7.26933282 C29.5840755,6.42522592 30.625043,5.09002115 31.1160276,3.4983657 C29.8470673,4.27913863 28.4421112,4.84706787 26.9471579,5.15231686 C25.7491953,3.82749471 24.0432486,3 22.1553076,3 C18.529421,3 15.5905128,6.05145164 15.5905128,9.81618919 C15.5905128,10.3508941 15.648511,10.8710633 15.7605075,11.369429 C10.304678,11.0849452 5.4668292,8.37092867 2.2289303,4.24695251 C1.663948,5.25406653 1.3399581,6.42418766 1.3399581,7.67425495 C1.3399581,10.0394155 2.4989219,12.1252836 4.2608668,13.3483561 C3.1849005,13.3130552 2.1729321,13.0067679 1.2869598,12.4959431 C1.2859598,12.5239762 1.2859598,12.5530475 1.2859598,12.5821188 C1.2859598,15.8848298 3.5488891,18.6393386 6.5517953,19.2654105 C6.0008125,19.4211498 5.4208306,19.5042107 4.8218493,19.5042107 C4.3988625,19.5042107 3.9878754,19.461642 3.5868879,19.3816958 C4.4218618,22.0894828 6.846786,24.0601038 9.7196963,24.1151317 C7.4727665,25.9435109 4.6418549,27.0326476 1.5659511,27.0326476 C1.0359676,27.0326476 0.5139839,27.0004614 0,26.9371275 C2.9049092,28.8714093 6.3558014,30 10.0636855,30 C22.1393081,30 28.7421018,19.6132282 28.7421018,10.6052682 C28.7421018,10.3093636 28.736102,10.0155355 28.7231024,9.72378389 C30.0060623,8.76235339 31.1190275,7.56212267 31.999,6.19577004 L32,6.19577004 L32,6.19577004 Z" id="Shape" fill="#2E2E2E" sketch:type="MSShapeGroup"></path>
            <path d="M32,38.19577 C30.8230368,38.7377427 29.5570763,39.1042492 28.2291178,39.2693328 C29.5840755,38.4252259 30.625043,37.0900211 31.1160276,35.4983657 C29.8470673,36.2791386 28.4421112,36.8470679 26.9471579,37.1523169 C25.7491953,35.8274947 24.0432486,35 22.1553076,35 C18.529421,35 15.5905128,38.0514516 15.5905128,41.8161892 C15.5905128,42.3508941 15.648511,42.8710633 15.7605075,43.369429 C10.304678,43.0849452 5.4668292,40.3709287 2.2289303,36.2469525 C1.663948,37.2540665 1.3399581,38.4241877 1.3399581,39.674255 C1.3399581,42.0394155 2.4989219,44.1252836 4.2608668,45.3483561 C3.1849005,45.3130552 2.1729321,45.0067679 1.2869598,44.4959431 C1.2859598,44.5239762 1.2859598,44.5530475 1.2859598,44.5821188 C1.2859598,47.8848298 3.5488891,50.6393386 6.5517953,51.2654105 C6.0008125,51.4211498 5.4208306,51.5042107 4.8218493,51.5042107 C4.3988625,51.5042107 3.9878754,51.461642 3.5868879,51.3816958 C4.4218618,54.0894828 6.846786,56.0601038 9.7196963,56.1151317 C7.4727665,57.9435109 4.6418549,59.0326476 1.5659511,59.0326476 C1.0359676,59.0326476 0.5139839,59.0004614 0,58.9371275 C2.9049092,60.8714093 6.3558014,62 10.0636855,62 C22.1393081,62 28.7421018,51.6132282 28.7421018,42.6052682 C28.7421018,42.3093636 28.736102,42.0155355 28.7231024,41.7237839 C30.0060623,40.7623534 31.1190275,39.5621227 31.999,38.19577 L32,38.19577 L32,38.19577 Z" id="Shape" fill="#00ABF0" sketch:type="MSShapeGroup"></path>
        </g>
    </g>
</svg>