<?xml version="1.0" encoding="UTF-8" standalone="no"?>
<svg width="32px" height="64px" viewBox="0 0 32 64" version="1.1" xmlns="http://www.w3.org/2000/svg" xmlns:xlink="http://www.w3.org/1999/xlink" xmlns:sketch="http://www.bohemiancoding.com/sketch/ns">
    <!-- Generator: Sketch 3.4.1 (15681) - http://www.bohemiancoding.com/sketch -->
    <title>youtube</title>
    <desc>Created with Sketch.</desc>
    <defs></defs>
    <g id="Page-1" stroke="none" stroke-width="1" fill="none" fill-rule="evenodd" sketch:type="MSPage">
        <g id="youtube" sketch:type="MSArtboardGroup">
            <path d="M0.159679216,21.5439073 C0.255201604,22.504834 0.38351526,23.4001782 0.543194475,24.1686344 C0.735664959,25.0326131 1.15197149,25.768278 1.79211406,26.377055 C2.43225663,26.9530408 3.16792159,27.3037648 4.0319002,27.4007129 C6.6552016,27.6887057 10.6557362,27.8483849 15.9992871,27.8483849 C21.3442638,27.8483849 25.3447984,27.6887057 27.9680998,27.4007129 C28.8320784,27.3037648 29.5677434,26.9530408 30.2078859,26.377055 C30.816663,25.768278 31.2329695,25.0326131 31.4240143,24.1686344 C31.6164847,23.4001782 31.7447984,22.504834 31.8403208,21.5439073 C31.9044776,20.5516151 31.9686344,19.7517933 31.9686344,19.1116507 C32,18.4401426 32,17.576164 32,16.4241925 C32,15.272221 32,14.3754511 31.9686344,13.7353085 C31.9686344,13.095166 31.9044776,12.2953442 31.8403208,11.3044776 C31.7447984,10.3121853 31.6164847,9.44820673 31.4568055,8.6797505 C31.264335,7.81577189 30.8480285,7.08010693 30.2078859,6.47132992 C29.5677434,5.86397861 28.8320784,5.54319448 27.9680998,5.44767209 C25.3447984,5.12831366 21.3442638,5 15.9992871,5 C10.6557362,5 6.6552016,5.12831366 4.0319002,5.44767209 C3.16792159,5.54319448 2.43225663,5.86397861 1.79211406,6.47132992 C1.18333705,7.08010693 0.767030519,7.81577189 0.575985743,8.6797505 C0.38351526,9.44820673 0.255201604,10.3121853 0.159679216,11.3044776 C0.0955223881,12.2953442 0.0313655603,13.095166 0.0313655603,13.7353085 C0,14.3754511 0,15.272221 0,16.4241925 C0,17.576164 0,18.4401426 0.0313655603,19.1116507 C0.0313655603,19.7517933 0.0955223881,20.5516151 0.159679216,21.5439073 L0.159679216,21.5439073 Z M11.4241925,10.6957006 C11.4241925,10.2480285 11.6152372,9.92724438 12.0001782,9.70340833 C12.4164847,9.47957229 12.8,9.51236356 13.1835153,9.7361996 L22.3037648,15.4632658 C22.6887057,15.6557362 22.8483849,15.9765204 22.8483849,16.4241925 C22.8483849,16.840499 22.6887057,17.1926487 22.3037648,17.3836935 L13.1835153,23.0808198 C12.9924705,23.2077077 12.8,23.2718646 12.576164,23.2718646 C12.3836935,23.2718646 12.191223,23.240499 12.0001782,23.1435509 C11.6152372,22.9197149 11.4241925,22.5675652 11.4241925,22.1198931 L11.4241925,10.6957006 L11.4241925,10.6957006 Z" id="Fill-85" fill="#2E2E2E" sketch:type="MSShapeGroup"></path>
            <path d="M0.159679216,53.5439073 C0.255201604,54.504834 0.38351526,55.4001782 0.543194475,56.1686344 C0.735664959,57.0326131 1.15197149,57.768278 1.79211406,58.377055 C2.43225663,58.9530408 3.16792159,59.3037648 4.0319002,59.4007129 C6.6552016,59.6887057 10.6557362,59.8483849 15.9992871,59.8483849 C21.3442638,59.8483849 25.3447984,59.6887057 27.9680998,59.4007129 C28.8320784,59.3037648 29.5677434,58.9530408 30.2078859,58.377055 C30.816663,57.768278 31.2329695,57.0326131 31.4240143,56.1686344 C31.6164847,55.4001782 31.7447984,54.504834 31.8403208,53.5439073 C31.9044776,52.5516151 31.9686344,51.7517933 31.9686344,51.1116507 C32,50.4401426 32,49.576164 32,48.4241925 C32,47.272221 32,46.3754511 31.9686344,45.7353085 C31.9686344,45.095166 31.9044776,44.2953442 31.8403208,43.3044776 C31.7447984,42.3121853 31.6164847,41.4482067 31.4568055,40.6797505 C31.264335,39.8157719 30.8480285,39.0801069 30.2078859,38.4713299 C29.5677434,37.8639786 28.8320784,37.5431945 27.9680998,37.4476721 C25.3447984,37.1283137 21.3442638,37 15.9992871,37 C10.6557362,37 6.6552016,37.1283137 4.0319002,37.4476721 C3.16792159,37.5431945 2.43225663,37.8639786 1.79211406,38.4713299 C1.18333705,39.0801069 0.767030519,39.8157719 0.575985743,40.6797505 C0.38351526,41.4482067 0.255201604,42.3121853 0.159679216,43.3044776 C0.0955223881,44.2953442 0.0313655603,45.095166 0.0313655603,45.7353085 C0,46.3754511 0,47.272221 0,48.4241925 C0,49.576164 0,50.4401426 0.0313655603,51.1116507 C0.0313655603,51.7517933 0.0955223881,52.5516151 0.159679216,53.5439073 L0.159679216,53.5439073 Z M11.4241925,42.6957006 C11.4241925,42.2480285 11.6152372,41.9272444 12.0001782,41.7034083 C12.4164847,41.4795723 12.8,41.5123636 13.1835153,41.7361996 L22.3037648,47.4632658 C22.6887057,47.6557362 22.8483849,47.9765204 22.8483849,48.4241925 C22.8483849,48.840499 22.6887057,49.1926487 22.3037648,49.3836935 L13.1835153,55.0808198 C12.9924705,55.2077077 12.8,55.2718646 12.576164,55.2718646 C12.3836935,55.2718646 12.191223,55.240499 12.0001782,55.1435509 C11.6152372,54.9197149 11.4241925,54.5675652 11.4241925,54.1198931 L11.4241925,42.6957006 L11.4241925,42.6957006 Z" id="Fill-85-Copy" fill="#AD2A25" sketch:type="MSShapeGroup"></path>
        </g>
    </g>
</svg>